<svg width="141" height="166" viewBox="0 0 141 166" fill="none" xmlns="http://www.w3.org/2000/svg">
<rect x="16" y="96.9014" width="30" height="70" rx="15" transform="rotate(-9.40296 16 96.9014)" fill="#5780C1"/>
<path d="M89.1078 23.7457L98.4039 95.9143C98.7995 98.9262 96.8678 101.684 94.1073 102.062L87.3752 102.988C84.5982 103.361 82.0569 101.249 81.6717 98.2035L81.5914 97.5934C76.8001 94.9227 70.6392 92.0605 63.2972 89.9068C55.3733 87.5891 48.3283 86.6251 42.709 86.3088C38.0354 85.6307 32.463 85.1646 26.2015 85.3965C22.8304 85.5286 19.6969 85.8265 16.8002 86.2351C13.658 86.6765 10.7829 84.1856 10.3424 80.7392L7.8212 61.2324C7.36946 57.7643 9.55206 54.6095 12.722 54.1951C16.3119 53.7112 20.1934 52.9896 24.2945 51.9712C29.2944 50.7409 33.7541 49.2134 37.7323 47.6631C43.3503 45.7307 50.0479 42.8936 57.2469 38.5138C63.4175 34.8171 68.4737 30.8078 72.5415 27.2383L72.3809 26.0182C72.0026 23.0665 73.9125 20.3199 76.6895 19.9469L83.4216 19.0216C86.1821 18.6434 88.7183 20.7722 89.1078 23.7457Z" fill="#5780C1"/>
<path d="M122.806 74.4907L107.071 62.274C103.178 59.2535 102.487 53.6983 105.517 49.8705L117.772 34.396C120.611 30.8068 126.429 32.4383 127.007 36.9686L131.144 69.8621C131.7 74.4047 126.455 77.3204 122.806 74.4907Z" fill="#1BB680"/>
</svg>
