<svg width="48" height="48" viewBox="0 0 48 48" fill="none" xmlns="http://www.w3.org/2000/svg">
<mask id="mask0_2084_210" style="mask-type:luminance" maskUnits="userSpaceOnUse" x="0" y="0" width="48" height="48">
<path d="M0 0H48V48H0V0Z" fill="white"/>
</mask>
<g mask="url(#mask0_2084_210)">
<path fill-rule="evenodd" clip-rule="evenodd" d="M37.233 18.99C39.0223 19.4331 40.6117 20.4626 41.7476 21.9144C42.8835 23.3662 43.5004 25.1566 43.5 27V27.75C43.5 29.938 42.6308 32.0365 41.0836 33.5836C39.5365 35.1308 37.438 36 35.25 36H34.5C32.3598 36.0019 30.3028 35.1712 28.7642 33.6835C27.2256 32.1959 26.3261 30.168 26.256 28.029V28.02H26.25V27C26.25 26.606 26.277 26.22 26.331 25.842C26.391 25.058 26.481 24.288 26.601 23.532C26.9174 21.5515 27.4808 19.6184 28.278 17.778C29.7074 14.4811 31.9367 11.5929 34.764 9.375L35.058 9.147C35.1823 9.05246 35.3339 9.00086 35.49 9C36.048 9 36.408 9.606 36.15 10.101C35.9245 10.5312 35.7045 10.9642 35.49 11.4C35.0325 12.3383 34.6023 13.2897 34.2 14.253C33.5491 15.7963 32.9911 17.3771 32.529 18.987L32.691 18.948C33.285 18.8167 33.8916 18.7503 34.5 18.75H35.25C35.936 18.752 36.597 18.832 37.233 18.99ZM38.88 14.775C41.5147 15.5575 43.8261 17.1705 45.4695 19.3734C47.113 21.5764 48.0006 24.2515 48 27V27.75C48 31.1315 46.6567 34.3745 44.2656 36.7656C41.8745 39.1567 38.6315 40.5 35.25 40.5H34.5C32.434 40.5004 30.3989 39.9987 28.5699 39.0382C26.7408 38.0776 25.1725 36.687 24 34.986C22.8275 36.687 21.2592 38.0776 19.4301 39.0382C17.6011 39.9987 15.566 40.5004 13.5 40.5H12.75C9.41272 40.5007 6.2082 39.1929 3.82439 36.8573C1.44058 34.5217 0.0675308 31.3446 0 28.008L0 27C0 26.45 0.035 25.907 0.105 25.371C0.726 17.511 4.179 10.473 10.569 5.574C11.4794 4.87755 12.5938 4.50013 13.74 4.5C17.763 4.5 20.178 8.775 18.384 12.192C18.051 12.825 17.604 13.716 17.13 14.772C19.494 15.474 21.573 16.842 23.145 18.663C24.7698 13.4533 27.9762 8.87866 32.319 5.574C33.2294 4.87755 34.3438 4.50013 35.49 4.5C39.513 4.5 41.928 8.775 40.134 12.192C39.801 12.825 39.354 13.716 38.88 14.772M15.48 18.99C14.8309 18.8314 14.1652 18.7508 13.497 18.75H12.747C12.0829 18.7508 11.4213 18.8304 10.776 18.987C11.3228 17.0761 12.0045 15.2064 12.816 13.392C13.3067 12.2775 13.835 11.1798 14.4 10.101C14.4604 9.98692 14.4904 9.85917 14.4869 9.73013C14.4835 9.60108 14.4469 9.4751 14.3805 9.36438C14.3141 9.25366 14.2203 9.16194 14.1081 9.09811C13.9959 9.03427 13.8691 9.00048 13.74 9C13.5839 9.00086 13.4323 9.05246 13.308 9.147C12.3131 9.91658 11.3802 10.7632 10.518 11.679C8.7472 13.5824 7.33455 15.7898 6.348 18.195C5.64558 19.9103 5.14423 21.7013 4.854 23.532C4.73 24.288 4.639 25.058 4.581 25.842C4.52911 26.2259 4.50205 26.6127 4.5 27V28.017H4.503V28.029C4.57313 30.1686 5.47306 32.1969 7.01231 33.6846C8.55155 35.1723 10.6093 36.0027 12.75 36H13.503C15.691 36 17.7895 35.1308 19.3366 33.5836C20.8838 32.0365 21.753 29.938 21.753 27.75V27C21.753 23.13 19.083 19.878 15.486 18.99" fill="black"/>
</g>
</svg>
